<svg id="Iconly_Bulk_Document" data-name="Iconly/Bulk/Document" xmlns="http://www.w3.org/2000/svg" width="24" height="24" viewBox="0 0 24 24">
  <g id="Document" transform="translate(3 2)">
    <path id="Path" d="M13.191,0H4.81C1.77,0,0,1.78,0,4.83V15.16C0,18.26,1.77,20,4.81,20h8.381C16.28,20,18,18.26,18,15.16V4.83C18,1.78,16.28,0,13.191,0" opacity="0.4"/>
    <path id="Combined_Shape" data-name="Combined Shape" d="M.12,10.3a.8.8,0,0,1,0-.84A.785.785,0,0,1,.87,9.09H8.71a.79.79,0,0,1,0,1.57H.87a.732.732,0,0,1-.1.007A.783.783,0,0,1,.12,10.3ZM.87,6.09a.781.781,0,0,1,0-1.562H8.71a.781.781,0,0,1,0,1.562Zm0-4.521A.78.78,0,1,1,.87.01V0H3.859a.785.785,0,0,1,0,1.57Z" transform="translate(4.21 4.65)"/>
  </g>
</svg>
