<svg id="Iconly_Bulk_Delete" data-name="Iconly/Bulk/Delete" xmlns="http://www.w3.org/2000/svg" width="24" height="24" viewBox="0 0 24 24">
  <g id="Delete" transform="translate(3 2)">
    <path id="Fill_1" data-name="Fill 1" d="M15.289.792c0,.068-.533,6.809-.837,9.646a2.918,2.918,0,0,1-3,2.827c-1.293.029-2.56.039-3.806.039-1.323,0-2.616-.01-3.872-.039A2.917,2.917,0,0,1,.847,10.438C.534,7.591.011.86,0,.792A.794.794,0,0,1,.192.234.71.71,0,0,1,.715,0H14.585a.73.73,0,0,1,.523.234.748.748,0,0,1,.181.558" transform="translate(1.354 6.696)" opacity="0.4"/>
    <path id="Fill_4" data-name="Fill 4" d="M18,3.977a.722.722,0,0,0-.713-.733H14.371A1.281,1.281,0,0,1,13.13,2.227L12.967,1.5a1.985,1.985,0,0,0-1.9-1.5H6.936A1.988,1.988,0,0,0,5.023,1.546l-.153.682A1.283,1.283,0,0,1,3.63,3.244H.714A.722.722,0,0,0,0,3.977v.38a.729.729,0,0,0,.714.733H17.287A.729.729,0,0,0,18,4.357Z" transform="translate(0 0)"/>
  </g>
</svg>
