<svg id="Iconly_Bulk_Send" data-name="Iconly/Bulk/Send" xmlns="http://www.w3.org/2000/svg" width="24" height="24" viewBox="0 0 24 24">
  <g id="Send" transform="translate(2 2)">
    <path id="Fill_1" data-name="Fill 1" d="M19.427.578a1.938,1.938,0,0,0-1.93-.5L1.407,4.727A1.914,1.914,0,0,0,.024,6.238a2.235,2.235,0,0,0,1,2.09L6.057,11.4a1.308,1.308,0,0,0,1.609-.191l5.761-5.761a.735.735,0,0,1,1.06,0,.754.754,0,0,1,0,1.06L8.716,12.269a1.31,1.31,0,0,0-.193,1.609l3.074,5.05a2,2,0,0,0,1.91.929,1.944,1.944,0,0,0,1.63-1.38l4.77-15.969a1.943,1.943,0,0,0-.48-1.93" transform="translate(0)"/>
    <path id="Combined_Shape" data-name="Combined Shape" d="M4.765,7.626a.75.75,0,0,1,0-1.06L6.13,5.2A.75.75,0,0,1,7.191,6.26L5.825,7.626a.75.75,0,0,1-1.06,0ZM3.981,3.838a.75.75,0,0,1,0-1.06L5.346,1.411A.75.75,0,0,1,6.407,2.472L5.041,3.838a.75.75,0,0,1-1.06,0ZM.22,2.645a.75.75,0,0,1,0-1.06L1.585.219A.75.75,0,0,1,2.646,1.28L1.28,2.645a.75.75,0,0,1-1.06,0Z" transform="translate(0.261 11.943)" opacity="0.4"/>
  </g>
</svg>
