<svg id="Iconly_Bulk_Close_Square" data-name="Iconly/Bulk/Close Square" xmlns="http://www.w3.org/2000/svg" width="24" height="24" viewBox="0 0 24 24">
  <g id="Group" transform="translate(2 2)">
    <path id="Fill_1" data-name="Fill 1" d="M14.34,0H5.67C2.28,0,0,2.38,0,5.92v8.17C0,17.62,2.28,20,5.67,20h8.67C17.73,20,20,17.62,20,14.09V5.92C20,2.38,17.73,0,14.34,0" opacity="0.4"/>
    <path id="Fill_4" data-name="Fill 4" d="M6.29,5.052,4.511,3.274,6.289,1.5A.875.875,0,0,0,5.052.258L3.273,2.036,1.494.256A.875.875,0,1,0,.256,1.494l1.78,1.78L.26,5.049A.875.875,0,0,0,1.5,6.287L3.273,4.511,5.053,6.29A.875.875,0,0,0,6.29,5.052" transform="translate(6.726 6.719)"/>
  </g>
</svg>
